<?xml version="1.0" encoding="utf-8"?>
<!-- Svg Vector Icons : http://www.onlinewebfonts.com/icon -->
<!DOCTYPE svg PUBLIC "-//W3C//DTD SVG 1.1//EN" "http://www.w3.org/Graphics/SVG/1.1/DTD/svg11.dtd">
<svg version="1.1" xmlns="http://www.w3.org/2000/svg" xmlns:xlink="http://www.w3.org/1999/xlink" x="0px" y="0px" viewBox="0 0 256 256" enable-background="new 0 0 256 256" xml:space="preserve">
<metadata> Svg Vector Icons : http://www.onlinewebfonts.com/icon </metadata>
<g><g><g><path fill="#000000" d="M64.1,8c-3.2,0.3-9.6,2.1-13.3,3.7c-5.5,2.4-10.3,5.5-14.9,9.9C28.5,28.6,24.3,36,21.2,47.1c-0.4,1.6-0.6,14.5-0.8,51.5L20.2,148l-5.1,0.1l-5.1,0.1l0.1,16l0.1,16l1.6,1.4c2.7,2.4,6.5,1.6,7.9-1.7l0.7-1.6h3.8c3.5,0,3.8,0,3.8,1c0,0.5,0.6,1.6,1.4,2.3c2.4,2.4,6.4,1.6,7.9-1.5l0.8-1.8l3.6,0c3.5,0,3.6,0,3.9,1.2c0.9,3.5,5.7,4.7,8.3,2.1l1.4-1.4v-16v-16h-4.9h-5l0.1-47.8l0.1-47.8l1.3-3.2c2.4-6.3,6.7-11.1,12.3-13.8c4.1-2,6.5-2.6,11.1-2.6c6.9,0,12.9,2.4,17.6,7.1c3.1,3.1,4.6,5.3,5.8,8.7c1.4,3.9,1.6,4.9,0.7,4.9c-0.4,0-1.5,0.7-2.4,1.6c-1.8,1.8-2.2,4.1-0.9,5.7c0.4,0.5,0.7,1,0.7,1.2c0,0.2-5.9,0.4-13.2,0.4H65.5v90.2v90.2h32.4h32.4l0.6,1.7c0.6,1.8,2.8,3.5,4.7,3.5s4.1-1.6,4.7-3.5l0.6-1.7h4.9c4.7,0,4.9,0,4.9,1c0,1.6,2.9,4.2,4.7,4.2c2.2,0,4.1-1.3,4.9-3.4l0.7-1.8h4.7h4.7l0.8,1.9c1.3,3.1,1.9,3.3,14.6,3.3c10.2,0,11.3-0.1,12.6-0.9c0.9-0.6,1.7-1.6,2.1-2.6l0.6-1.7h4.9c4.7,0,4.9,0,4.9,1c0,0.6,0.7,1.7,1.6,2.6l1.6,1.6h11.8h11.8l1.6-1.6c0.9-0.9,1.6-2,1.6-2.6c0-0.9,0.3-1,2.6-1h2.6l-0.1-90.1l-0.1-90.2l-61-0.1l-61-0.1l1-1.7c0.9-1.6,0.9-1.8,0.3-3.7c-0.5-1.6-1.1-2.1-2.9-3.1c-2-0.9-2.3-1.3-2.3-2.6c0-2.8-2.4-10.8-4.4-15.1c-2.9-5.9-5.4-9.5-9.9-14.1C94.9,11.6,79.8,6.3,64.1,8z M74.9,18.1c2.2,0.2,5.2,0.8,6.6,1.2c13.6,3.9,24.4,15.2,27.7,29c1.4,5.6,1.4,5.5-1.6,5.5h-2.5l-0.5-3c-1.1-6.4-4.4-12.5-9.6-17.7c-7.3-7.4-16.5-10.9-26.7-10.2C53.9,23.7,41.9,33,37,46.9l-1.3,3.8l-0.2,48.6L35.2,148l-2.4,0.1l-2.5,0.1v-47c0-40.8,0.1-47.5,0.8-50.9c3.2-16.9,17.2-30.2,34.1-32.3C69.5,17.5,70.5,17.5,74.9,18.1z M235.7,153.1v80.1h-80.1H75.4v-80.1V73h80.1h80.1V153.1z M45.3,163v4.9h-3.7c-3.6,0-3.7,0-4-1.2c-0.9-3.5-5.7-4.7-8.3-2.1c-0.8,0.8-1.4,1.8-1.4,2.4c0,0.9-0.3,1-3.8,1h-3.8V163v-4.9h12.5h12.5V163z"/><path fill="#000000" d="M87.8,83.8c-1.7,1-2.7,3.5-2.3,5.4s2.8,3.6,4.9,3.6c2.2,0,4.5-1.7,4.9-3.7c0.4-1.9-0.8-4.5-2.5-5.4C90.9,82.6,89.6,82.7,87.8,83.8z"/><path fill="#000000" d="M148.7,83.2c-17.1,2.2-31.3,8.9-42.8,20.4c-20.9,21-26.4,52.3-13.8,79.3c6.4,13.9,19.4,27,33.1,33.4c17.2,8,36.3,9.1,53.8,2.9c23.7-8.5,41-28.7,45.6-53.8c1.3-6.9,1.2-19.4-0.2-25.9c-6.1-28.4-27.2-49.4-55.3-55.2C164.6,83.3,152.7,82.7,148.7,83.2z M150.6,98.1c0,2.7-0.1,4.9-0.2,4.9c-0.1,0-1.9,0.3-3.9,0.7c-7.1,1.4-13.6,4-19.3,8c-1.6,1.1-3.1,2.1-3.3,2.1s-1.9-1.6-3.8-3.4l-3.4-3.4l2.2-1.7c5.3-3.9,10.9-7,16.6-9c3.9-1.4,11.1-3,13.5-3.1l1.5,0V98.1z M167.6,94.1c8.4,1.7,17,5.5,23.6,10.4l3.2,2.4l-3.6,3.6l-3.6,3.6l-2-1.5c-6.8-4.8-14.3-7.9-23-9.3l-1.8-0.3v-4.9v-4.9h1.2C162.3,93.2,165,93.6,167.6,94.1z M150.6,118.3v4.9l-3.4,1c-1.9,0.6-4.7,1.7-6.3,2.6l-2.8,1.6l-3.4-3.4c-1.9-1.9-3.4-3.5-3.4-3.7c0-0.5,5.9-4,8.9-5.3c3-1.3,7.5-2.5,9.4-2.5C150.5,113.4,150.6,113.6,150.6,118.3z M166.1,114.4c4,1.1,10.3,4,12.5,5.8l1.4,1.2l-3.5,3.5l-3.5,3.5l-2.4-1.3c-2.7-1.5-5.2-2.5-8.1-3.3l-2-0.5v-4.9C160.5,112.6,160.2,112.8,166.1,114.4z M113.4,117.8l3.4,3.4l-1.8,2.4c-4.1,5.4-7.6,13.5-8.7,20.5l-0.6,3.7l-5,0.1c-2.8,0-5,0-5-0.2c0-0.2,0.3-2.4,0.7-4.7c1.5-8.8,5.1-17.7,10.4-25.1c1.5-2,2.8-3.7,2.9-3.7C109.8,114.4,111.5,115.9,113.4,117.8z M205.3,119.2c3,4.6,5.4,9.2,7.1,13.8c1.3,3.5,3.1,11.8,3.1,13.9v1.2h-4.9h-4.9l-0.3-1.8c-1.5-8.8-4.5-16.3-9.3-23l-1.5-2l3.5-3.5c2.7-2.7,3.6-3.4,4.1-3C202.5,115.2,203.9,117.2,205.3,119.2z M130.4,136.5c-1.6,2.5-3.1,6-3.8,8.6l-0.8,2.8l-5,0.1l-5.1,0.1l0.3-2c0.8-5.1,3.4-11.4,6.5-15.8l1.4-2l3.6,3.6C130.9,135.3,131,135.6,130.4,136.5z M190.1,132.8c2.2,3.7,4.5,9.7,5,13.3l0.3,2.1h-5h-5l-0.5-2c-0.7-2.6-2.6-7.2-3.8-9l-0.9-1.4l3.4-3.4c1.8-1.8,3.6-3.3,3.9-3.2C187.7,129.2,188.9,130.8,190.1,132.8z M150.6,137.2v3.6l-2.6-2.5l-2.6-2.6l2.3-1c1.2-0.6,2.4-1.1,2.6-1.1C150.4,133.6,150.6,135.3,150.6,137.2z M164.1,135l1.5,0.8l-2.6,2.5l-2.6,2.5v-3.7C160.5,133.2,160.5,133.2,164.1,135z M140.8,145.2c1.2,1.2,2.3,2.4,2.3,2.6c0,0.2-1.5,0.4-3.3,0.4c-2.6,0-3.3-0.1-3.3-0.7c0-0.9,1.4-4.5,1.8-4.5C138.5,143,139.6,144,140.8,145.2z M174.7,147.1c0.3,1.1,0.3,1.1-3.3,1.1h-3.7l2.5-2.6l2.5-2.6l0.8,1.5C174.1,145.4,174.6,146.6,174.7,147.1z M106.1,160.5c0.8,6.4,3.6,13.9,7.6,19.9l2.9,4.4l-3.4,3.4c-4,3.9-3.6,4-7.2-1.2c-3-4.4-6.3-11.2-7.8-16c-0.9-3.1-2.6-11-2.6-12.5c0-0.2,2.3-0.4,5.1-0.4h5.1L106.1,160.5z M126.5,160.5c0.3,1.4,1.5,4.2,2.5,6.3l1.9,3.7l-3.4,3.4c-1.9,1.9-3.5,3.4-3.7,3.4c-0.5,0-3.7-5.4-4.9-8.2c-1.2-2.7-3.1-9-3.1-10.4c0-0.5,1.1-0.6,5.1-0.6h5L126.5,160.5z M140.9,160.4c-2.4,2.5-2.8,2.7-3.2,1.7c-0.1-0.3-0.6-1.4-1-2.4l-0.8-1.7h3.6h3.6L140.9,160.4z M174.7,159.1c-0.1,0.6-0.7,1.8-1.1,2.6l-0.8,1.5l-2.5-2.6l-2.5-2.6h3.7C175,158.1,175.1,158.1,174.7,159.1z M195.2,158.9c0,3.5-4.2,13.8-7.1,17.5l-0.9,1.2l-3.6-3.6l-3.6-3.6l1.4-2.2c0.8-1.2,2-4,2.7-6.2l1.3-4h4.8C194.8,158.1,195.2,158.2,195.2,158.9z M215.2,161c-1.1,9.4-5.4,19.9-11.6,28.2l-2,2.7l-3.4-3.4c-1.9-1.9-3.4-3.6-3.4-3.8c0-0.2,0.9-1.6,2.1-3.3c3.9-5.6,6.7-12.4,8-19.2c0.4-2.1,0.8-3.9,0.8-4c0-0.1,2.3-0.2,5-0.2h5L215.2,161z M150.5,170.7l-0.1,1.9l-2.1-0.9c-1.1-0.5-2.2-1-2.3-1.2c-0.1-0.1,0.8-1.3,2.1-2.6l2.3-2.3l0.1,1.6C150.6,168.1,150.6,169.7,150.5,170.7z M163.5,167.9c1.3,1.3,2.2,2.4,2.1,2.5c-0.4,0.4-3.9,1.7-4.5,1.7c-0.5,0-0.7-0.8-0.7-3.3c0-1.8,0.2-3.3,0.4-3.3C161,165.6,162.2,166.6,163.5,167.9z M142.1,179.8c1.9,0.9,4.7,2,6,2.3l2.4,0.6v5.1v5.1l-1.7-0.3c-6.1-1-13.4-4.2-17.5-7.6c-0.3-0.2,6.7-7.2,7-7.1C138.5,178,140.2,178.8,142.1,179.8z M176.9,181.3l3.4,3.5l-2,1.4c-4.4,3.1-10.8,5.6-15.8,6.5l-2,0.3l0.1-5l0.1-5l3.5-1.1c1.9-0.6,4.6-1.7,5.9-2.5c1.3-0.8,2.6-1.4,2.8-1.4C173.2,177.8,174.9,179.4,176.9,181.3z M133,197.7c4.4,2.3,9.4,3.9,13.9,4.6l3.7,0.6v5.1c0,2.8-0.2,5.1-0.4,5.1c-1.5,0-9.4-1.6-12.5-2.6c-4.8-1.5-11.7-4.8-16-7.8c-5.2-3.6-5.1-3.2-1.2-7.2l3.4-3.5l2.9,2.1C128.4,195.2,131.2,196.8,133,197.7z M190.9,195.3c1.8,1.9,3.4,3.5,3.4,3.7c0,0.1-1.6,1.5-3.7,2.9c-7.4,5.3-16.3,9-25.1,10.4c-2.4,0.4-4.6,0.7-4.7,0.7c-0.2,0-0.3-2.3-0.2-5l0.1-5l3.4-0.6c7-1.2,15.8-4.9,20.6-8.6c1.3-1,2.4-1.9,2.6-1.9C187.4,191.9,189,193.5,190.9,195.3z"/><path fill="#000000" d="M218.3,83.5c-2.7,1.5-3.2,5.6-1,7.9c2.3,2.3,6.7,1.6,7.9-1.2c1-2.2,0.7-3.9-1-5.7C222.5,82.7,220.4,82.4,218.3,83.5z"/><path fill="#000000" d="M88.2,213.8c-1.8,0.9-3.2,3.5-2.7,5.4c0.4,1.7,2.3,3.6,4,4c1.9,0.4,4.5-0.9,5.4-2.8c0.4-0.8,0.8-1.8,0.8-2.1c0-1.4-1.6-3.8-3.1-4.4C90.6,212.9,90.1,212.9,88.2,213.8z"/><path fill="#000000" d="M219.3,213.4c-0.6,0.1-1.6,0.8-2.3,1.6c-3.3,4,0.8,9.7,5.5,7.8c1.7-0.7,3.1-2.8,3.1-4.5c0-1.7-1.4-3.8-3.1-4.5c-0.9-0.4-1.8-0.6-2-0.6C220.6,213.2,219.9,213.3,219.3,213.4z"/></g></g></g>
</svg>